<svg version="1.1" id="Layer_1" xmlns="http://www.w3.org/2000/svg" xmlns:xlink="http://www.w3.org/1999/xlink" x="0px" y="0px"
	 width="100%" viewBox="0 0 1200 1200" enable-background="new 0 0 1200 1200" xml:space="preserve">
<path fill="#000000" opacity="1.000000" stroke="none" 
	d="
M695.000000,1201.000000 
	C463.333344,1201.000000 232.166672,1201.000000 1.000000,1201.000000 
	C1.000000,801.000000 1.000000,401.000000 1.000000,1.000000 
	C401.000000,1.000000 801.000000,1.000000 1201.000000,1.000000 
	C1201.000000,401.000000 1201.000000,801.000000 1201.000000,1201.000000 
	C1032.500000,1201.000000 864.000000,1201.000000 695.000000,1201.000000 
M338.000000,657.500000 
	C338.000061,682.331116 337.998077,707.162170 338.001221,731.993286 
	C338.002625,742.992981 338.007324,742.998901 349.033325,742.998962 
	C520.020996,743.000244 691.008667,743.000183 861.996338,742.998840 
	C872.995361,742.998779 873.001221,742.992737 873.001282,731.966003 
	C873.002502,550.312439 873.002563,368.658844 873.001221,187.005280 
	C873.001160,176.007050 872.994934,176.001205 861.969238,176.001129 
	C690.981567,175.999878 519.993896,175.999908 349.006226,176.001190 
	C338.007141,176.001266 338.001251,176.007233 338.001129,187.033829 
	C337.999756,343.522552 338.000061,500.011261 338.000000,657.500000 
M463.671051,1022.403137 
	C447.140839,980.960144 430.743408,939.463379 414.013702,898.101074 
	C407.522217,882.051697 407.183990,882.272522 392.282959,882.979675 
	C388.592926,883.154907 386.453491,884.721436 385.157318,888.059265 
	C380.819977,899.228516 376.430176,910.377808 371.984344,921.504333 
	C364.141968,941.131531 356.236755,960.733704 348.370911,980.351501 
	C342.981476,993.793091 337.534821,1007.213135 332.351807,1020.734070 
	C331.795288,1022.185791 332.187378,1025.052490 333.235779,1025.889526 
	C338.302734,1029.934937 351.070404,1026.103394 353.436768,1020.055908 
	C357.015442,1010.910522 360.591370,1001.761719 363.974060,992.543030 
	C365.366241,988.749023 367.645325,986.959778 371.765656,986.983276 
	C389.255920,987.082947 406.747284,987.067688 424.237854,986.996643 
	C427.943665,986.981567 429.969177,988.551697 431.228485,992.049072 
	C434.215820,1000.345459 437.503632,1008.534180 440.705933,1016.752502 
	C444.267578,1025.892944 452.086212,1029.711426 461.295227,1026.568604 
	C462.413086,1026.187134 463.007629,1024.272217 463.671051,1022.403137 
M594.502075,1027.030029 
	C612.488953,1027.023071 630.477234,1027.123657 648.461121,1026.887695 
	C651.014771,1026.854126 655.300049,1025.694702 655.743225,1024.171509 
	C656.843079,1020.392029 657.067383,1015.806641 655.847778,1012.142639 
	C655.264160,1010.389343 650.621155,1009.174316 647.789185,1009.118652 
	C632.805847,1008.824219 617.813660,1008.971924 602.824585,1008.975037 
	C595.032410,1008.976624 595.009277,1008.984619 595.007263,1001.365295 
	C594.997925,966.390747 595.013123,931.416199 594.997375,896.441650 
	C594.990906,882.085327 596.199463,882.952576 581.421204,883.019348 
	C574.776855,883.049377 574.035889,883.805054 574.022095,890.611633 
	C573.982239,910.263916 574.002747,929.916382 574.002869,949.568726 
	C574.002991,972.552002 573.984985,995.535339 574.021790,1018.518555 
	C574.033203,1025.664429 575.262207,1026.850220 582.511719,1026.997314 
	C586.174316,1027.071533 589.839417,1027.023071 594.502075,1027.030029 
M807.008362,976.500000 
	C807.011719,990.663391 806.976562,1004.826965 807.035583,1018.990112 
	C807.062744,1025.507935 808.403015,1026.773682 815.000061,1026.994751 
	C816.165283,1027.033936 817.332764,1027.028931 818.498901,1027.017578 
	C826.969177,1026.935059 827.990601,1025.947998 827.993713,1017.504822 
	C828.008789,977.014160 828.001953,936.523560 828.002258,896.032898 
	C828.002380,882.873169 828.001526,882.873169 815.001465,883.001892 
	C807.625549,883.074890 807.029053,883.617981 807.022278,891.019531 
	C806.996582,919.179688 807.009766,947.339844 807.008362,976.500000 
z"/>
<path fill="#171717" opacity="1.000000" stroke="none" 
	d="
M338.000000,657.000000 
	C338.000061,500.011261 337.999756,343.522552 338.001129,187.033829 
	C338.001251,176.007233 338.007141,176.001266 349.006226,176.001190 
	C519.993896,175.999908 690.981567,175.999878 861.969238,176.001129 
	C872.994934,176.001205 873.001160,176.007050 873.001221,187.005280 
	C873.002563,368.658844 873.002502,550.312439 873.001282,731.966003 
	C873.001221,742.992737 872.995361,742.998779 861.996338,742.998840 
	C691.008667,743.000183 520.020996,743.000244 349.033325,742.998962 
	C338.007324,742.998901 338.002625,742.992981 338.001221,731.993286 
	C337.998077,707.162170 338.000061,682.331116 338.000000,657.000000 
M857.000000,460.500000 
	C856.999207,373.507202 857.002441,286.514404 856.990845,199.521622 
	C856.989807,191.607620 856.450928,191.016876 848.980652,191.016296 
	C686.326965,191.003693 523.673218,191.003769 361.019531,191.016144 
	C353.650848,191.016708 353.014130,191.653183 353.013611,199.021484 
	C353.001434,372.674316 353.001434,546.327148 353.013641,719.979980 
	C353.014160,727.347229 353.652588,727.921814 361.019714,727.994812 
	C361.852936,728.003113 362.686249,727.999695 363.519531,727.999695 
	C524.506714,727.999878 685.493896,728.000061 846.481079,727.996948 
	C848.313904,727.996887 850.146729,727.954041 851.979553,727.929932 
	C855.237671,727.887207 856.889038,726.235474 856.929504,722.978088 
	C856.956360,720.812012 856.997009,718.645813 856.997070,716.479675 
	C857.000488,631.486450 857.000000,546.493225 857.000000,460.500000 
z"/>
<path fill="#171717" opacity="1.000000" stroke="none" 
	d="
M463.757874,1022.735535 
	C463.007629,1024.272217 462.413086,1026.187134 461.295227,1026.568604 
	C452.086212,1029.711426 444.267578,1025.892944 440.705933,1016.752502 
	C437.503632,1008.534180 434.215820,1000.345459 431.228485,992.049072 
	C429.969177,988.551697 427.943665,986.981567 424.237854,986.996643 
	C406.747284,987.067688 389.255920,987.082947 371.765656,986.983276 
	C367.645325,986.959778 365.366241,988.749023 363.974060,992.543030 
	C360.591370,1001.761719 357.015442,1010.910522 353.436768,1020.055908 
	C351.070404,1026.103394 338.302734,1029.934937 333.235779,1025.889526 
	C332.187378,1025.052490 331.795288,1022.185791 332.351807,1020.734070 
	C337.534821,1007.213135 342.981476,993.793091 348.370911,980.351501 
	C356.236755,960.733704 364.141968,941.131531 371.984344,921.504333 
	C376.430176,910.377808 380.819977,899.228516 385.157318,888.059265 
	C386.453491,884.721436 388.592926,883.154907 392.282959,882.979675 
	C407.183990,882.272522 407.522217,882.051697 414.013702,898.101074 
	C430.743408,939.463379 447.140839,980.960144 463.757874,1022.735535 
M379.232513,953.726990 
	C377.560211,958.081543 375.807526,962.407410 374.236053,966.798035 
	C372.295135,972.221008 372.765747,972.938965 378.464081,972.967163 
	C391.630066,973.032349 404.796661,973.005554 417.962799,972.963440 
	C419.370514,972.958923 420.777100,972.606262 423.224762,972.273743 
	C414.720673,950.074524 406.487610,928.582825 397.813293,905.939270 
	C391.405212,922.406189 385.452393,937.703125 379.232513,953.726990 
z"/>
<path fill="#171717" opacity="1.000000" stroke="none" 
	d="
M594.002686,1027.030029 
	C589.839417,1027.023071 586.174316,1027.071533 582.511719,1026.997314 
	C575.262207,1026.850220 574.033203,1025.664429 574.021790,1018.518555 
	C573.984985,995.535339 574.002991,972.552002 574.002869,949.568726 
	C574.002747,929.916382 573.982239,910.263916 574.022095,890.611633 
	C574.035889,883.805054 574.776855,883.049377 581.421204,883.019348 
	C596.199463,882.952576 594.990906,882.085327 594.997375,896.441650 
	C595.013123,931.416199 594.997925,966.390747 595.007263,1001.365295 
	C595.009277,1008.984619 595.032410,1008.976624 602.824585,1008.975037 
	C617.813660,1008.971924 632.805847,1008.824219 647.789185,1009.118652 
	C650.621155,1009.174316 655.264160,1010.389343 655.847778,1012.142639 
	C657.067383,1015.806641 656.843079,1020.392029 655.743225,1024.171509 
	C655.300049,1025.694702 651.014771,1026.854126 648.461121,1026.887695 
	C630.477234,1027.123657 612.488953,1027.023071 594.002686,1027.030029 
z"/>
<path fill="#171717" opacity="1.000000" stroke="none" 
	d="
M807.008423,976.000000 
	C807.009766,947.339844 806.996582,919.179688 807.022278,891.019531 
	C807.029053,883.617981 807.625549,883.074890 815.001465,883.001892 
	C828.001526,882.873169 828.002380,882.873169 828.002258,896.032898 
	C828.001953,936.523560 828.008789,977.014160 827.993713,1017.504822 
	C827.990601,1025.947998 826.969177,1026.935059 818.498901,1027.017578 
	C817.332764,1027.028931 816.165283,1027.033936 815.000061,1026.994751 
	C808.403015,1026.773682 807.062744,1025.507935 807.035583,1018.990112 
	C806.976562,1004.826965 807.011719,990.663391 807.008423,976.000000 
z"/>
<path fill="#000000" opacity="1.000000" stroke="none" 
	d="
M857.000000,461.000000 
	C857.000000,546.493225 857.000488,631.486450 856.997070,716.479675 
	C856.997009,718.645813 856.956360,720.812012 856.929504,722.978088 
	C856.889038,726.235474 855.237671,727.887207 851.979553,727.929932 
	C850.146729,727.954041 848.313904,727.996887 846.481079,727.996948 
	C685.493896,728.000061 524.506714,727.999878 363.519531,727.999695 
	C362.686249,727.999695 361.852936,728.003113 361.019714,727.994812 
	C353.652588,727.921814 353.014160,727.347229 353.013641,719.979980 
	C353.001434,546.327148 353.001434,372.674316 353.013611,199.021484 
	C353.014130,191.653183 353.650848,191.016708 361.019531,191.016144 
	C523.673218,191.003769 686.326965,191.003693 848.980652,191.016296 
	C856.450928,191.016876 856.989807,191.607620 856.990845,199.521622 
	C857.002441,286.514404 856.999207,373.507202 857.000000,461.000000 
M751.555237,505.937164 
	C728.243835,447.631073 704.914856,389.332031 681.627686,331.016266 
	C668.160156,297.290894 654.677307,263.571014 641.421082,229.762482 
	C639.485046,224.824844 636.813232,222.815659 631.448486,222.904053 
	C614.790161,223.178497 598.124512,222.998672 581.461670,223.001419 
	C571.160645,223.003128 571.165833,223.010361 567.363342,232.530594 
	C517.808899,356.597931 468.256165,480.665924 418.694885,604.730530 
	C406.025146,636.446106 393.325684,668.149780 380.643036,699.860229 
	C377.614319,707.432983 377.972931,707.975342 386.257782,707.990845 
	C399.588013,708.015808 412.918365,708.011414 426.248596,707.995178 
	C439.917938,707.978455 446.685181,703.503174 451.715759,690.597900 
	C465.871735,654.282715 479.963348,617.942078 493.897766,581.541565 
	C495.723022,576.773438 498.355988,574.809265 503.515442,574.913269 
	C517.006836,575.185364 530.507385,575.000183 544.004272,575.000244 
	C597.658630,575.000549 651.313110,575.069580 704.966980,574.903625 
	C710.634888,574.886108 714.291870,576.451172 715.670105,582.154541 
	C715.941345,583.276794 716.514465,584.325073 716.935669,585.412354 
	C730.593384,620.670898 744.188477,655.953918 757.939026,691.176147 
	C762.727356,703.441528 769.555603,707.911865 782.839050,707.977844 
	C796.668884,708.046509 810.499390,708.018250 824.329468,707.986877 
	C831.655212,707.970215 832.099915,707.322815 829.423828,700.628296 
	C803.575623,635.965149 777.713806,571.307373 751.555237,505.937164 
z"/>
<path fill="#000000" opacity="1.000000" stroke="none" 
	d="
M379.366058,953.363525 
	C385.452393,937.703125 391.405212,922.406189 397.813293,905.939270 
	C406.487610,928.582825 414.720673,950.074524 423.224762,972.273743 
	C420.777100,972.606262 419.370514,972.958923 417.962799,972.963440 
	C404.796661,973.005554 391.630066,973.032349 378.464081,972.967163 
	C372.765747,972.938965 372.295135,972.221008 374.236053,966.798035 
	C375.807526,962.407410 377.560211,958.081543 379.366058,953.363525 
z"/>
<path fill="#171717" opacity="1.000000" stroke="none" 
	d="
M751.705566,506.292603 
	C777.713806,571.307373 803.575623,635.965149 829.423828,700.628296 
	C832.099915,707.322815 831.655212,707.970215 824.329468,707.986877 
	C810.499390,708.018250 796.668884,708.046509 782.839050,707.977844 
	C769.555603,707.911865 762.727356,703.441528 757.939026,691.176147 
	C744.188477,655.953918 730.593384,620.670898 716.935669,585.412354 
	C716.514465,584.325073 715.941345,583.276794 715.670105,582.154541 
	C714.291870,576.451172 710.634888,574.886108 704.966980,574.903625 
	C651.313110,575.069580 597.658630,575.000549 544.004272,575.000244 
	C530.507385,575.000183 517.006836,575.185364 503.515442,574.913269 
	C498.355988,574.809265 495.723022,576.773438 493.897766,581.541565 
	C479.963348,617.942078 465.871735,654.282715 451.715759,690.597900 
	C446.685181,703.503174 439.917938,707.978455 426.248596,707.995178 
	C412.918365,708.011414 399.588013,708.015808 386.257782,707.990845 
	C377.972931,707.975342 377.614319,707.432983 380.643036,699.860229 
	C393.325684,668.149780 406.025146,636.446106 418.694885,604.730530 
	C468.256165,480.665924 517.808899,356.597931 567.363342,232.530594 
	C571.165833,223.010361 571.160645,223.003128 581.461670,223.001419 
	C598.124512,222.998672 614.790161,223.178497 631.448486,222.904053 
	C636.813232,222.815659 639.485046,224.824844 641.421082,229.762482 
	C654.677307,263.571014 668.160156,297.290894 681.627686,331.016266 
	C704.914856,389.332031 728.243835,447.631073 751.705566,506.292603 
M661.862610,442.655945 
	C642.850830,391.794281 621.041809,341.981873 604.760376,288.527466 
	C603.800537,291.568115 603.329712,293.125000 602.818481,294.668488 
	C598.368652,308.105103 594.431946,321.738983 589.367737,334.940216 
	C565.566589,396.984955 541.453735,458.910065 517.457153,520.879883 
	C515.393799,526.208435 515.850342,526.969055 521.625732,526.972046 
	C576.773743,527.000977 631.921753,527.000854 687.069763,526.974731 
	C693.413391,526.971741 693.958313,526.133850 691.728821,520.325500 
	C681.881165,494.669617 672.010925,469.022400 661.862610,442.655945 
z"/>
<path fill="#000000" opacity="1.000000" stroke="none" 
	d="
M662.005737,443.013977 
	C672.010925,469.022400 681.881165,494.669617 691.728821,520.325500 
	C693.958313,526.133850 693.413391,526.971741 687.069763,526.974731 
	C631.921753,527.000854 576.773743,527.000977 521.625732,526.972046 
	C515.850342,526.969055 515.393799,526.208435 517.457153,520.879883 
	C541.453735,458.910065 565.566589,396.984955 589.367737,334.940216 
	C594.431946,321.738983 598.368652,308.105103 602.818481,294.668488 
	C603.329712,293.125000 603.800537,291.568115 604.760376,288.527466 
	C621.041809,341.981873 642.850830,391.794281 662.005737,443.013977 
z"/>
</svg>