<svg version="1.1" id="Layer_1" xmlns="http://www.w3.org/2000/svg" xmlns:xlink="http://www.w3.org/1999/xlink" x="0px" y="0px"
	 width="100%" viewBox="0 0 1024 1024" enable-background="new 0 0 1024 1024" xml:space="preserve">
<path fill="#000000" opacity="1.000000" stroke="none" 
	d="
M745.164551,560.000000 
	C745.166199,582.998779 745.040710,605.498779 745.265625,627.995300 
	C745.316284,633.067261 743.672363,634.490234 738.656372,634.486511 
	C590.664551,634.376587 442.672607,634.410522 294.680695,634.411560 
	C287.887177,634.411621 287.851654,634.359497 287.851318,627.320190 
	C287.843597,470.328766 287.841400,313.337311 287.842865,156.345886 
	C287.842926,149.728775 287.863983,149.716354 295.105408,149.716248 
	C442.764038,149.713882 590.422668,149.714005 738.081299,149.716431 
	C745.163391,149.716553 745.163879,149.728699 745.163879,157.023224 
	C745.164062,291.182159 745.164124,425.341064 745.164551,560.000000 
M301.975739,168.742767 
	C301.990417,316.741547 302.005463,464.740356 302.018677,612.739136 
	C302.019379,620.716492 302.012146,620.714111 309.829346,620.714172 
	C447.661835,620.715332 585.494324,620.717102 723.326843,620.718689 
	C724.160156,620.718689 725.002258,620.639709 725.825317,620.731445 
	C729.392029,621.128967 731.224182,619.810120 730.836853,615.987732 
	C730.686462,614.503113 730.816956,612.990234 730.816956,611.490234 
	C730.814697,464.657806 730.811462,317.825378 730.811035,170.992950 
	C730.811035,163.273392 730.821411,163.283340 723.290710,163.284119 
	C636.791260,163.293091 550.291809,163.299362 463.792328,163.305176 
	C411.959320,163.308655 360.126312,163.312347 308.293304,163.306961 
	C305.087158,163.306641 301.555542,162.770813 301.975739,168.742767 
z"/>
<path fill="#000000" opacity="1.000000" stroke="none" 
	d="
M300.274292,829.372986 
	C309.869995,805.557007 319.416809,782.134277 328.645844,758.586975 
	C330.234833,754.532837 332.236725,752.894043 336.616211,752.933472 
	C347.931244,753.035156 348.056183,752.806641 352.323456,763.417908 
	C366.476440,798.611816 380.544891,833.839783 394.592590,869.075928 
	C395.369598,871.024841 396.623505,872.930603 396.078125,875.927368 
	C391.498840,876.521484 386.752075,876.672974 382.078033,875.846130 
	C379.181244,875.333618 378.001343,872.629211 377.025360,870.095886 
	C374.213989,862.798401 371.299225,855.536255 368.700928,848.163025 
	C367.431122,844.559692 365.601929,842.818237 361.495819,842.879333 
	C346.848419,843.097229 332.194519,843.081848 317.546265,842.900452 
	C313.737793,842.853271 311.824188,844.302246 310.598022,847.773804 
	C308.161011,854.673340 305.405212,861.460083 302.797546,868.299622 
	C300.062256,875.473755 298.876190,876.286682 291.010284,876.287170 
	C288.386383,876.287354 285.762482,876.287231 281.730408,876.287231 
	C288.123657,860.097473 294.120819,844.910767 300.274292,829.372986 
M351.630219,804.773376 
	C347.746246,794.683716 343.862274,784.594055 339.535034,773.352844 
	C332.048187,792.749390 325.090851,810.774231 317.930664,829.324585 
	C332.780823,829.324585 346.460876,829.324585 361.092560,829.324585 
	C357.829773,820.900330 354.849335,813.205017 351.630219,804.773376 
z"/>
<path fill="#000000" opacity="1.000000" stroke="none" 
	d="
M507.906097,796.000000 
	C507.905609,817.963318 507.905609,839.426697 507.905609,860.610291 
	C509.969025,862.138367 511.868530,861.636902 513.642883,861.643127 
	C527.308167,861.691101 540.975708,861.806824 554.637756,861.593628 
	C558.927856,861.526672 560.960999,862.773926 560.363464,867.251831 
	C560.210510,868.398010 560.239868,869.592102 560.358032,870.746582 
	C560.767517,874.746582 559.239014,876.386536 555.009888,876.351807 
	C535.013062,876.187622 515.013916,876.207703 495.016388,876.312439 
	C491.411957,876.331299 489.886993,875.109924 489.893188,871.428406 
	C489.956604,833.765442 489.963318,796.102295 489.909454,758.439331 
	C489.904053,754.678772 491.289886,753.137268 495.178284,753.003601 
	C507.925354,752.565369 507.915924,752.449036 507.906311,765.002747 
	C507.898560,775.168518 507.905945,785.334229 507.906097,796.000000 
z"/>
<path fill="#000000" opacity="1.000000" stroke="none" 
	d="
M706.966553,826.000000 
	C706.972351,840.987671 706.879272,855.476440 707.041321,869.962341 
	C707.092651,874.549561 705.685608,876.531555 700.730591,876.376953 
	C687.401672,875.961182 688.931091,877.926086 688.915405,864.709473 
	C688.874023,829.905762 688.907715,795.101868 688.922974,760.298096 
	C688.926086,753.230652 689.073120,753.107605 696.234009,753.034973 
	C706.965576,752.926147 706.968140,752.926147 706.968628,763.552551 
	C706.969543,784.201721 706.967346,804.850830 706.966553,826.000000 
z"/>
<path fill="#000000" opacity="1.000000" stroke="none" 
	d="
M361.138123,506.225159 
	C386.591827,442.634644 411.900391,379.399658 437.174561,316.150970 
	C453.118164,276.252014 469.092773,236.364944 484.819519,196.380539 
	C486.746674,191.480850 489.074799,189.461258 494.567047,189.612503 
	C509.554260,190.025208 524.562073,189.870316 539.557983,189.665222 
	C543.470032,189.611694 545.549988,190.819534 547.027100,194.544922 
	C566.422424,243.461258 585.936523,292.330597 605.461914,341.195251 
	C631.601196,406.611725 657.777893,472.013306 683.935364,537.422546 
	C692.098145,557.834412 700.256409,578.248108 708.395630,598.669434 
	C709.003540,600.194519 709.440491,601.787781 709.868896,603.083313 
	C709.106445,604.423950 708.140991,604.803345 707.144897,604.802979 
	C693.320435,604.797363 679.490051,604.979614 665.673462,604.629761 
	C655.803772,604.380005 649.995361,598.407837 646.581909,589.545959 
	C637.004517,564.681274 627.338257,539.850830 617.700806,515.009277 
	C615.170776,508.487976 612.541321,502.003937 610.111694,495.445679 
	C609.059082,492.604370 607.535156,491.269684 604.266235,491.274506 
	C545.605042,491.361084 486.943512,491.370300 428.282349,491.251373 
	C424.388184,491.243500 423.153809,493.274719 421.992828,496.279449 
	C410.109314,527.034973 398.205078,557.782776 386.213074,588.496216 
	C381.370392,600.899231 375.164917,605.009766 361.911621,605.020569 
	C350.745972,605.029663 339.580292,605.028809 328.414703,605.002441 
	C326.617889,604.998169 324.724762,605.371460 322.294586,603.379395 
	C335.109131,571.311523 348.043762,538.943237 361.138123,506.225159 
M475.769165,357.134857 
	C463.988922,387.639801 452.208710,418.144745 440.160034,449.344757 
	C491.256439,449.344757 541.087280,449.344757 591.907349,449.344757 
	C567.305420,381.897308 539.403198,316.542328 516.067871,248.107895 
	C504.682556,285.849823 489.306824,320.734344 475.769165,357.134857 
z"/>
</svg>